<svg viewBox="0 0 1200 600" xmlns="http://www.w3.org/2000/svg">
  <!-- P Letter -->
  <g>
    <path d="M 120 150 L 120 450 M 120 150 Q 120 80 220 80 Q 300 80 300 160 Q 300 240 220 240 L 120 240" stroke="#005BAB" stroke-width="60" fill="none" stroke-linecap="round" stroke-linejoin="round"/>
  </g>
  
  <!-- D Letter -->
  <g>
    <path d="M 420 150 L 420 450 M 420 150 Q 420 80 520 80 Q 620 80 620 300 Q 620 520 520 520 Q 420 520 420 450" stroke="#005BAB" stroke-width="60" fill="none" stroke-linecap="round" stroke-linejoin="round"/>
  </g>
  
  <!-- R Letter -->
  <g>
    <path d="M 780 150 L 780 450 M 780 150 Q 780 80 880 80 Q 960 80 960 160 Q 960 240 880 240 L 780 240 L 960 450" stroke="#005BAB" stroke-width="60" fill="none" stroke-linecap="round" stroke-linejoin="round"/>
  </g>
  
  <!-- TEAM Text -->
  <text x="140" y="540" font-family="Arial, sans-serif" font-size="100" font-weight="bold" font-style="italic" fill="#1A2332">TEAM</text>
  
  <!-- Diagonal Stripes -->
  <!-- Dark Navy Stripe -->
  <polygon points="120,480 240,480 300,600 180,600" fill="#1A2332"/>
  
  <!-- Medium Blue Stripe -->
  <polygon points="280,480 400,480 460,600 340,600" fill="#005BAB"/>
  
  <!-- Light Blue Stripe -->
  <polygon points="440,480 560,480 620,600 500,600" fill="#0084D1"/>
</svg>
